HIERARCHY
ROOT Root
{
  OFFSET 0.0 0.0 0.0
  CHANNELS 6 Xposition Yposition Zposition Zrotation Yrotation Xrotation
  JOINT Hips
  {
    OFFSET 0.0 100.0 0.0
    CHANNELS 6 Xposition Yposition Zposition Zrotation Yrotation Xrotation
    JOINT Spine1
    {
      OFFSET -0.013727 5.003763 -0.053727
      CHANNELS 3 Zrotation Yrotation Xrotation
      JOINT Spine2
      {
        OFFSET -0.0 7.125301 -0.029825
        CHANNELS 3 Zrotation Yrotation Xrotation
        JOINT Chest
        {
          OFFSET -1e-06 7.550063 -0.815971
          CHANNELS 3 Zrotation Yrotation Xrotation
          JOINT Neck1
          {
            OFFSET -0.181677 26.311295 -0.553348
            CHANNELS 3 Zrotation Yrotation Xrotation
            JOINT Neck2
            {
              OFFSET -3e-06 7.709397 2.302585
              CHANNELS 3 Zrotation Yrotation Xrotation
              JOINT Head
              {
                OFFSET -5e-06 6.128916 1.953709
                CHANNELS 3 Zrotation Yrotation Xrotation
                JOINT HeadEnd
                {
                  OFFSET 0.003598 16.065403 -1.835379
                  CHANNELS 3 Zrotation Yrotation Xrotation
                }
                JOINT Jaw
                {
                  OFFSET 0.002637 0.475592 3.094941
                  CHANNELS 3 Zrotation Yrotation Xrotation
                }
                JOINT LeftEye
                {
                  OFFSET 3.206381 5.380205 7.586883
                  CHANNELS 3 Zrotation Yrotation Xrotation
                }
                JOINT RightEye
                {
                  OFFSET -3.22244 5.361869 7.558234
                  CHANNELS 3 Zrotation Yrotation Xrotation
                }
              }
            }
          }
          JOINT LeftShoulder
          {
            OFFSET 1.621652 23.237164 5.113413
            CHANNELS 3 Zrotation Yrotation Xrotation
            JOINT LeftArm
            {
              OFFSET 14.919846 2e-06 -5.502326
              CHANNELS 3 Zrotation Yrotation Xrotation
              JOINT LeftForeArm
              {
                OFFSET 28.739307 0.0 -0.002588
                CHANNELS 3 Zrotation Yrotation Xrotation
                JOINT LeftHand
                {
                  OFFSET 27.093981 -1e-06 0.002609
                  CHANNELS 3 Zrotation Yrotation Xrotation
                  JOINT LeftHandThumb1
                  {
                    OFFSET 2.276482 -1.392045 3.191413
                    CHANNELS 3 Zrotation Yrotation Xrotation
                    JOINT LeftHandThumb2
                    {
                      OFFSET 4.012836 -1.828127 1.641654
                      CHANNELS 3 Zrotation Yrotation Xrotation
                      JOINT LeftHandThumb3
                      {
                        OFFSET 2.798515 0.0 -3e-06
                        CHANNELS 3 Zrotation Yrotation Xrotation
                        JOINT LeftHandThumbEnd
                        {
                          OFFSET 3.180793 -4e-06 4e-06
                          CHANNELS 3 Zrotation Yrotation Xrotation
                        }
                      }
                    }
                  }
                  JOINT LeftHandIndex1
                  {
                    OFFSET 3.247555 -0.531998 2.296169
                    CHANNELS 3 Zrotation Yrotation Xrotation
                    JOINT LeftHandIndex2
                    {
                      OFFSET 6.364578 0.01206 0.1786
                      CHANNELS 3 Zrotation Yrotation Xrotation
                      JOINT LeftHandIndex3
                      {
                        OFFSET 3.662364 0.0 0.0
                        CHANNELS 3 Zrotation Yrotation Xrotation
                        JOINT LeftHandIndex4
                        {
                          OFFSET 2.329242 4e-06 4e-06
                          CHANNELS 3 Zrotation Yrotation Xrotation
                          JOINT LeftHandIndexEnd
                          {
                            OFFSET 2.759615 -0.180537 -0.113024
                            CHANNELS 3 Zrotation Yrotation Xrotation
                          }
                        }
                      }
                    }
                  }
                  JOINT LeftHandMiddle1
                  {
                    OFFSET 3.163495 0.240981 1.000332
                    CHANNELS 3 Zrotation Yrotation Xrotation
                    JOINT LeftHandMiddle2
                    {
                      OFFSET 6.19078 -0.259278 -1.002548
                      CHANNELS 3 Zrotation Yrotation Xrotation
                      JOINT LeftHandMiddle3
                      {
                        OFFSET 4.35652 -4e-06 -1e-06
                        CHANNELS 3 Zrotation Yrotation Xrotation
                        JOINT LeftHandMiddle4
                        {
                          OFFSET 2.996877 -8e-06 0.0
                          CHANNELS 3 Zrotation Yrotation Xrotation
                          JOINT LeftHandMiddleEnd
                          {
                            OFFSET 2.304287 -0.294569 -0.031741
                            CHANNELS 3 Zrotation Yrotation Xrotation
                          }
                        }
                      }
                    }
                  }
                  JOINT LeftHandRing1
                  {
                    OFFSET 2.882643 -0.053652 -0.322543
                    CHANNELS 3 Zrotation Yrotation Xrotation
                    JOINT LeftHandRing2
                    {
                      OFFSET 5.854541 -0.486202 -1.373841
                      CHANNELS 3 Zrotation Yrotation Xrotation
                      JOINT LeftHandRing3
                      {
                        OFFSET 4.350578 0.0 3e-06
                        CHANNELS 3 Zrotation Yrotation Xrotation
                        JOINT LeftHandRing4
                        {
                          OFFSET 2.651321 7e-06 2e-06
                          CHANNELS 3 Zrotation Yrotation Xrotation
                          JOINT LeftHandRingEnd
                          {
                            OFFSET 1.936105 0.077687 -7.1e-05
                            CHANNELS 3 Zrotation Yrotation Xrotation
                          }
                        }
                      }
                    }
                  }
                  JOINT LeftHandPinky1
                  {
                    OFFSET 2.8655 -0.310005 -1.600378
                    CHANNELS 3 Zrotation Yrotation Xrotation
                    JOINT LeftHandPinky2
                    {
                      OFFSET 5.087849 -1.331141 -1.77123
                      CHANNELS 3 Zrotation Yrotation Xrotation
                      JOINT LeftHandPinky3
                      {
                        OFFSET 3.070974 4e-06 0.0
                        CHANNELS 3 Zrotation Yrotation Xrotation
                        JOINT LeftHandPinky4
                        {
                          OFFSET 1.549672 0.0 1e-06
                          CHANNELS 3 Zrotation Yrotation Xrotation
                          JOINT LeftHandPinkyEnd
                          {
                            OFFSET 1.944893 -0.157802 0.057219
                            CHANNELS 3 Zrotation Yrotation Xrotation
                          }
                        }
                      }
                    }
                  }
                }
              }
            }
          }
          JOINT RightShoulder
          {
            OFFSET -1.380118 23.180309 5.214158
            CHANNELS 3 Zrotation Yrotation Xrotation
            JOINT RightArm
            {
              OFFSET -15.037196 1.2e-05 -5.545604
              CHANNELS 3 Zrotation Yrotation Xrotation
              JOINT RightForeArm
              {
                OFFSET -28.736639 2e-06 -0.002597
                CHANNELS 3 Zrotation Yrotation Xrotation
                JOINT RightHand
                {
                  OFFSET -27.133619 -0.0 0.002613
                  CHANNELS 3 Zrotation Yrotation Xrotation
                  JOINT RightHandThumb1
                  {
                    OFFSET -2.274032 -1.383988 3.163127
                    CHANNELS 3 Zrotation Yrotation Xrotation
                    JOINT RightHandThumb2
                    {
                      OFFSET -4.011429 -1.827466 1.640914
                      CHANNELS 3 Zrotation Yrotation Xrotation
                      JOINT RightHandThumb3
                      {
                        OFFSET -2.794935 -4e-06 -3e-06
                        CHANNELS 3 Zrotation Yrotation Xrotation
                        JOINT RightHandThumbEnd
                        {
                          OFFSET -3.183852 4e-06 1e-06
                          CHANNELS 3 Zrotation Yrotation Xrotation
                        }
                      }
                    }
                  }
                  JOINT RightHandIndex1
                  {
                    OFFSET -3.253266 -0.520057 2.282866
                    CHANNELS 3 Zrotation Yrotation Xrotation
                    JOINT RightHandIndex2
                    {
                      OFFSET -6.341917 0.012471 0.178266
                      CHANNELS 3 Zrotation Yrotation Xrotation
                      JOINT RightHandIndex3
                      {
                        OFFSET -3.654871 -8e-06 -0.0
                        CHANNELS 3 Zrotation Yrotation Xrotation
                        JOINT RightHandIndex4
                        {
                          OFFSET -2.327586 0.0 1e-06
                          CHANNELS 3 Zrotation Yrotation Xrotation
                          JOINT RightHandIndexEnd
                          {
                            OFFSET -2.76179 -0.180656 -0.113078
                            CHANNELS 3 Zrotation Yrotation Xrotation
                          }
                        }
                      }
                    }
                  }
                  JOINT RightHandMiddle1
                  {
                    OFFSET -3.168106 0.246593 1.00103
                    CHANNELS 3 Zrotation Yrotation Xrotation
                    JOINT RightHandMiddle2
                    {
                      OFFSET -6.180828 -0.258836 -1.000895
                      CHANNELS 3 Zrotation Yrotation Xrotation
                      JOINT RightHandMiddle3
                      {
                        OFFSET -4.348901 0.0 -0.0
                        CHANNELS 3 Zrotation Yrotation Xrotation
                        JOINT RightHandMiddle4
                        {
                          OFFSET -3.00024 -4e-06 -2e-06
                          CHANNELS 3 Zrotation Yrotation Xrotation
                          JOINT RightHandMiddleEnd
                          {
                            OFFSET -2.30252 -0.29437 -0.031706
                            CHANNELS 3 Zrotation Yrotation Xrotation
                          }
                        }
                      }
                    }
                  }
                  JOINT RightHandRing1
                  {
                    OFFSET -2.88569 -0.067952 -0.308858
                    CHANNELS 3 Zrotation Yrotation Xrotation
                    JOINT RightHandRing2
                    {
                      OFFSET -5.854198 -0.48613 -1.373731
                      CHANNELS 3 Zrotation Yrotation Xrotation
                      JOINT RightHandRing3
                      {
                        OFFSET -4.33881 -4e-06 -0.0
                        CHANNELS 3 Zrotation Yrotation Xrotation
                        JOINT RightHandRing4
                        {
                          OFFSET -2.654903 -4e-06 4e-06
                          CHANNELS 3 Zrotation Yrotation Xrotation
                          JOINT RightHandRingEnd
                          {
                            OFFSET -1.933568 0.077527 -5.2e-05
                            CHANNELS 3 Zrotation Yrotation Xrotation
                          }
                        }
                      }
                    }
                  }
                  JOINT RightHandPinky1
                  {
                    OFFSET -2.866425 -0.342796 -1.584145
                    CHANNELS 3 Zrotation Yrotation Xrotation
                    JOINT RightHandPinky2
                    {
                      OFFSET -5.091371 -1.332055 -1.772385
                      CHANNELS 3 Zrotation Yrotation Xrotation
                      JOINT RightHandPinky3
                      {
                        OFFSET -3.062664 -4e-06 1e-06
                        CHANNELS 3 Zrotation Yrotation Xrotation
                        JOINT RightHandPinky4
                        {
                          OFFSET -1.546529 4e-06 -2e-06
                          CHANNELS 3 Zrotation Yrotation Xrotation
                          JOINT RightHandPinkyEnd
                          {
                            OFFSET -1.945119 -0.157718 0.057211
                            CHANNELS 3 Zrotation Yrotation Xrotation
                          }
                        }
                      }
                    }
                  }
                }
              }
            }
          }
        }
      }
    }
    JOINT LeftLeg
    {
      OFFSET 10.043214 -8.434526 2.595655
      CHANNELS 3 Zrotation Yrotation Xrotation
      JOINT LeftShin
      {
        OFFSET -1e-06 -43.221752 -0.802913
        CHANNELS 3 Zrotation Yrotation Xrotation
        JOINT LeftFoot
        {
          OFFSET 1e-06 -42.155094 -3.481523
          CHANNELS 3 Zrotation Yrotation Xrotation
          JOINT LeftToeBase
          {
            OFFSET 0.0 -5.059472 13.231529
            CHANNELS 3 Zrotation Yrotation Xrotation
            JOINT LeftToeEnd
            {
              OFFSET -0.009607 -1.647619 6.513017
              CHANNELS 3 Zrotation Yrotation Xrotation
            }
          }
        }
      }
    }
    JOINT RightLeg
    {
      OFFSET -10.047278 -8.29526 2.620317
      CHANNELS 3 Zrotation Yrotation Xrotation
      JOINT RightShin
      {
        OFFSET 1e-06 -43.362206 -0.805556
        CHANNELS 3 Zrotation Yrotation Xrotation
        JOINT RightFoot
        {
          OFFSET 2e-06 -42.117393 -3.478398
          CHANNELS 3 Zrotation Yrotation Xrotation
          JOINT RightToeBase
          {
            OFFSET -0.0 -5.079609 13.284196
            CHANNELS 3 Zrotation Yrotation Xrotation
            JOINT RightToeEnd
            {
              OFFSET 0.009532 -1.634378 6.460591
              CHANNELS 3 Zrotation Yrotation Xrotation
            }
          }
        }
      }
    }
  }
}
MOTION
Frames: 4
Frame Time: 0.03333333333333333
0.0 0.0 0.0 0.0 -0.0 0.0 -1.338281 99.512032 -6.685505 -0.427689 1.363593 35.218941 2.429555 0.754759 14.832447 0.254176 -0.462193 1.73971 0.446968 -1.943536 27.473787 3.24445 1.335756 20.015356 -0.641462 -1.930449 -4.072935 -3.6859 -5.569207 -9.289003 7.7e-05 -2.2e-05 6e-06 0.144841 -0.002917 -0.176995 0.696273 -3.668702 -10.703429 -0.398611 3.670624 -10.754463 6.447935 -18.27515 12.422665 -28.89743 -61.616577 -5.289835 -0.484409 -24.922674 0.340142 7.493142 -0.413186 -7.156493 -5.882109 9.861287 0.702591 -10.936874 -0.360574 7.156207 -1e-06 8.774827 1e-06 -16.608747 17.870256 5.686264 -1.844033 2.498505 -2.507278 -10.163603 4.678947 4.621109 -20.97603 -1e-06 2e-06 -21.226294 2.451699 -3.594001 0.0 -6e-06 -0.0 -1.362682 2.240799 -0.746323 -21.334917 0.584912 3.008324 -13.821217 -1e-06 1e-06 -23.887175 -0.249077 -0.839484 -60.635628 2.547769 -1.487622 -0.294025 1.679688 0.833257 -14.218212 0.093217 1.300582 -34.212048 -0.287561 0.967169 -20.033215 0.964539 1.212843 -2e-06 -0.0 -0.0 -3.440389 0.788234 0.501657 -15.928191 -3.16731 2.999708 -6.338829 -1e-06 2e-06 -18.123455 3.648185 -4.905672 -5e-06 -0.0 -1e-06 -6.079841 19.316376 13.206542 20.677362 60.730045 -19.472628 0.225086 24.50132 0.310099 -5.832576 -0.303371 -1.217923 2.243541 -5.255035 -3.180157 14.282887 -0.826593 6.952503 -3e-06 -12.6906 1e-06 16.231161 -17.654903 2.308645 1.665665 -1.955921 -2.878297 4.727797 -4.170586 4.993921 11.020522 4e-06 -3e-06 12.109047 -3.735713 -2.866784 0.0 -0.0 -0.0 1.291985 -1.928549 -1.498088 14.800123 0.567469 3.865606 14.242566 -1.341735 -6.660656 19.631958 0.143927 -0.648245 50.291725 -0.428215 -6.481084 0.353029 -1.51115 -0.031939 20.222786 3.68431 2.31663 18.78727 6e-06 0.0 10.751625 -0.479866 1.397905 -1e-06 1e-06 -1e-06 3.273806 0.305948 -0.580109 21.486809 11.830374 2.266133 8.162924 2e-06 -0.0 18.399075 -3.798985 -4.940572 2e-06 1e-06 -0.0 0.285002 6.936781 -49.585701 0.020999 0.070199 6.022645 -6.306753 -1.304617 8.206182 1.615767 -1.968053 0.780188 -0.0 -0.0 2e-06 9.344616 -11.72024 -51.943855 0.12791 -0.227037 11.833803 1.563668 -2.992605 3.839185 -1.424743 1.114967 0.232399 -0.0 0.0 -1e-06 
0.0 0.0 0.0 0.0 -0.0 0.0 -1.264067 99.345634 -6.79958 -0.445282 1.268061 37.11544 2.515303 0.803582 15.378845 0.265536 -0.361137 2.048962 0.545353 -1.90949 28.164986 2.968222 1.554316 20.391453 -0.456286 -1.976598 -4.088763 -3.481298 -5.866566 -9.510672 7.7e-05 -2.3e-05 6e-06 0.141812 0.006061 -0.186236 0.678954 -3.653039 -10.754465 -0.385896 3.674384 -10.803515 7.367946 -18.453478 11.776537 -23.76819 -62.630608 -9.971738 -0.487611 -25.033075 0.400096 7.357267 -0.298229 -7.473837 -5.882113 9.861293 0.702592 -10.93688 -0.360573 7.156212 0.0 8.774831 0.0 -16.601954 17.844069 5.67177 -1.844035 2.498506 -2.50728 -10.163609 4.67895 4.621113 -20.97604 1e-06 1e-06 -21.226307 2.451702 -3.594004 0.0 -6e-06 -0.0 -1.362683 2.2408 -0.746324 -21.334932 0.584915 3.008326 -13.821227 1e-06 0.0 -23.887192 -0.249075 -0.839487 -60.671528 2.613323 -1.515711 -0.294025 1.679688 0.833257 -14.21822 0.093218 1.300582 -34.212078 -0.287557 0.967168 -20.03323 0.964541 1.212841 -1e-06 1e-06 -1e-06 -3.440391 0.788235 0.501656 -15.928201 -3.167309 2.999711 -6.33883 -0.0 1e-06 -18.123459 3.648188 -4.905676 -5e-06 -0.0 -2e-06 -7.195603 19.519539 12.615209 14.549273 60.602657 -24.698839 0.241624 24.370466 0.334106 -5.44516 -0.634055 -2.307229 2.243542 -5.255037 -3.180159 14.282896 -0.826596 6.952503 -2e-06 -12.690605 1e-06 16.287115 -17.663406 2.298503 1.665667 -1.955922 -2.878298 4.727801 -4.170589 4.993926 11.02053 2e-06 -1e-06 12.109056 -3.735717 -2.866784 0.0 -0.0 -1e-06 1.291986 -1.928549 -1.49809 14.800132 0.567467 3.865608 14.242573 -1.341737 -6.660658 19.631973 0.143924 -0.648245 50.398609 -0.459036 -6.537572 0.353029 -1.511151 -0.031941 20.222797 3.684307 2.31663 18.787279 2e-06 -2e-06 10.751633 -0.47987 1.397906 -1e-06 1e-06 -1e-06 3.273808 0.305946 -0.58011 21.486816 11.830371 2.266132 8.16293 1e-06 -1e-06 18.399086 -3.798985 -4.940577 2e-06 1e-06 -0.0 0.152742 6.790469 -51.964668 0.022392 0.047737 6.498181 -6.311316 -1.334922 8.225276 1.61024 -1.97038 0.857235 -0.0 0.0 2e-06 9.854552 -11.480034 -54.246143 0.147903 -0.243678 12.02393 1.461406 -2.838413 4.028443 -1.420286 1.097852 0.216684 0.0 0.0 -1e-06 
0.0 0.0 0.0 0.0 -0.0 0.0 -1.191292 99.196083 -6.82193 -0.439779 1.147433 38.920452 2.595009 0.858186 15.911614 0.272949 -0.252819 2.321774 0.620963 -1.874743 28.874952 2.581108 1.712407 20.778522 -0.271883 -2.02414 -4.099261 -3.15629 -6.1351 -9.597822 7.7e-05 -2.3e-05 6e-06 0.126713 0.012495 -0.194458 0.651557 -3.641578 -10.803566 -0.38712 3.677115 -10.849801 8.199998 -18.626125 11.170313 -18.368307 -63.338223 -15.104708 -0.512761 -25.020405 0.455146 7.380521 -0.203246 -7.713659 -5.882108 9.861287 0.702592 -10.936873 -0.360573 7.156209 -0.0 8.774826 1e-06 -16.569754 17.81794 5.682688 -1.844033 2.498505 -2.507279 -10.163602 4.678947 4.621112 -20.976027 -1e-06 3e-06 -21.226288 2.4517 -3.594001 0.0 -6e-06 -1e-06 -1.362682 2.240798 -0.746323 -21.334917 0.584912 3.008325 -13.821218 0.0 2e-06 -23.88718 -0.249076 -0.839484 -60.726967 2.684481 -1.519089 -0.294025 1.679688 0.833254 -14.218211 0.093216 1.300581 -34.212051 -0.287559 0.967171 -20.033216 0.96454 1.212842 -1e-06 1e-06 0.0 -3.440389 0.788234 0.501656 -15.928185 -3.167307 2.999709 -6.338827 0.0 2e-06 -18.123451 3.648185 -4.905671 -5e-06 0.0 -1e-06 -8.177709 19.709 12.081406 8.540599 60.065231 -29.450788 0.239594 24.23033 0.354138 -5.038219 -0.890624 -3.646622 2.243542 -5.255036 -3.180157 14.282892 -0.826596 6.952503 -1e-06 -12.690603 1e-06 16.3388 -17.667564 2.306276 1.665666 -1.955921 -2.878298 4.727799 -4.170588 4.993926 11.020528 3e-06 -1e-06 12.109053 -3.735716 -2.866784 0.0 0.0 -1e-06 1.291986 -1.928549 -1.498089 14.800129 0.567467 3.865608 14.242576 -1.341736 -6.66066 19.631969 0.143924 -0.648247 50.544861 -0.491237 -6.568038 0.353029 -1.51115 -0.031939 20.222794 3.684307 2.316632 18.787273 2e-06 -1e-06 10.75163 -0.479869 1.397907 -1e-06 1e-06 -0.0 3.273807 0.305947 -0.580109 21.486814 11.830373 2.266133 8.162928 1e-06 0.0 18.399082 -3.798988 -4.940573 3e-06 1e-06 -2e-06 -0.002877 6.659701 -54.088112 0.024235 0.013078 6.799996 -6.240507 -1.330148 8.241596 1.606896 -1.956153 0.931366 0.0 0.0 2e-06 10.191309 -11.146476 -56.334419 0.160678 -0.258652 12.161312 1.334364 -2.775836 4.175651 -1.417134 1.083896 0.212383 0.0 0.0 -1e-06 
0.0 0.0 0.0 0.0 -0.0 0.0 -1.11908 99.065407 -6.760842 -0.404941 1.018097 40.638783 2.675202 0.921468 16.403612 0.280664 -0.144622 2.567933 0.681577 -1.841668 29.60257 2.136953 1.778197 21.09812 -0.104101 -2.070314 -4.111484 -2.760932 -6.384126 -9.619271 7.7e-05 -2.2e-05 6e-06 0.114642 0.016686 -0.204819 0.633028 -3.638928 -10.858193 -0.391139 3.684393 -10.90199 8.921503 -18.835863 10.634049 -12.72978 -63.709415 -20.540279 -0.532398 -24.919374 0.490957 7.52432 -0.158568 -7.938805 -5.882108 9.861284 0.702589 -10.936873 -0.360574 7.156205 0.0 8.774824 1e-06 -16.521408 17.784433 5.696197 -1.844033 2.498504 -2.507279 -10.163601 4.678945 4.621109 -20.976027 -2e-06 -1e-06 -21.22629 2.451697 -3.594002 0.0 -6e-06 -1e-06 -1.362682 2.240798 -0.746324 -21.334917 0.584911 3.008321 -13.821215 -2e-06 1e-06 -23.887175 -0.249079 -0.839486 -60.785496 2.763557 -1.533779 -0.294025 1.679687 0.833256 -14.218211 0.093217 1.300581 -34.212051 -0.287562 0.967166 -20.033215 0.964537 1.212841 -1e-06 -0.0 0.0 -3.440389 0.788234 0.501656 -15.928187 -3.167307 2.999707 -6.338825 -1e-06 1e-06 -18.123453 3.648182 -4.905674 -6e-06 -0.0 -2e-06 -9.033304 19.94367 11.602578 2.796227 59.145779 -33.626205 0.224176 23.985445 0.363112 -4.610135 -1.07009 -5.046387 2.243542 -5.255036 -3.180158 14.282887 -0.826597 6.952502 0.0 -12.690601 -0.0 16.375803 -17.669701 2.33177 1.665666 -1.955922 -2.878299 4.727799 -4.170587 4.993924 11.020524 1e-06 -2e-06 12.109051 -3.735716 -2.866784 0.0 -0.0 1e-06 1.291986 -1.928549 -1.498089 14.800125 0.567465 3.865609 14.24257 -1.341737 -6.660657 19.631962 0.143922 -0.648246 50.672417 -0.519447 -6.588755 0.353029 -1.51115 -0.031941 20.222788 3.684306 2.316631 18.78727 2e-06 -2e-06 10.751626 -0.479869 1.397906 -1e-06 1e-06 -1e-06 3.273807 0.305947 -0.58011 21.486809 11.830368 2.266135 8.162928 1e-06 -0.0 18.39908 -3.798986 -4.940577 3e-06 1e-06 -1e-06 -0.19054 6.536703 -55.94709 0.025721 -0.027665 6.882697 -6.13166 -1.301171 8.283963 1.604545 -1.924044 0.993187 0.0 0.0 2e-06 10.371355 -10.759922 -58.228107 0.15766 -0.268425 12.25141 1.238118 -2.777903 4.282426 -1.415685 1.067028 0.229985 -0.0 0.0 -1e-06 
